<svg aria-roledescription="er" role="graphics-document document" viewBox="0 0 593.571533203125 386.03125" height="386.03125" xmlns="http://www.w3.org/2000/svg" width="593.571533203125" id="tmpMermaidElement"><style>#tmpMermaidElement {background: white;}#tmpMermaidElement{font-family:"trebuchet ms",verdana,arial,sans-serif;font-size:16px;fill:#333;}#tmpMermaidElement .error-icon{fill:#552222;}#tmpMermaidElement .error-text{fill:#552222;stroke:#552222;}#tmpMermaidElement .edge-thickness-normal{stroke-width:2px;}#tmpMermaidElement .edge-thickness-thick{stroke-width:3.5px;}#tmpMermaidElement .edge-pattern-solid{stroke-dasharray:0;}#tmpMermaidElement .edge-pattern-dashed{stroke-dasharray:3;}#tmpMermaidElement .edge-pattern-dotted{stroke-dasharray:2;}#tmpMermaidElement .marker{fill:#333333;stroke:#333333;}#tmpMermaidElement .marker.cross{stroke:#333333;}#tmpMermaidElement svg{font-family:"trebuchet ms",verdana,arial,sans-serif;font-size:16px;}#tmpMermaidElement .entityBox{fill:#ECECFF;stroke:#9370DB;}#tmpMermaidElement .attributeBoxOdd{fill:#ffffff;stroke:#9370DB;}#tmpMermaidElement .attributeBoxEven{fill:#f2f2f2;stroke:#9370DB;}#tmpMermaidElement .relationshipLabelBox{fill:hsl(80, 100%, 96.2745098039%);opacity:0.7;background-color:hsl(80, 100%, 96.2745098039%);}#tmpMermaidElement .relationshipLabelBox rect{opacity:0.5;}#tmpMermaidElement .relationshipLine{stroke:#333333;}#tmpMermaidElement .entityTitleText{text-anchor:middle;font-size:18px;fill:#333;}#tmpMermaidElement :root{--mermaid-font-family:"trebuchet ms",verdana,arial,sans-serif;}</style><g></g><defs><marker orient="auto" markerHeight="18" markerWidth="18" refY="9" refX="0" id="ONLY_ONE_START"><path d="M9,0 L9,18 M15,0 L15,18" fill="none" stroke="gray"></path></marker></defs><defs><marker orient="auto" markerHeight="18" markerWidth="18" refY="9" refX="18" id="ONLY_ONE_END"><path d="M3,0 L3,18 M9,0 L9,18" fill="none" stroke="gray"></path></marker></defs><defs><marker orient="auto" markerHeight="18" markerWidth="30" refY="9" refX="0" id="ZERO_OR_ONE_START"><circle r="6" cy="9" cx="21" fill="white" stroke="gray"></circle><path d="M9,0 L9,18" fill="none" stroke="gray"></path></marker></defs><defs><marker orient="auto" markerHeight="18" markerWidth="30" refY="9" refX="30" id="ZERO_OR_ONE_END"><circle r="6" cy="9" cx="9" fill="white" stroke="gray"></circle><path d="M21,0 L21,18" fill="none" stroke="gray"></path></marker></defs><defs><marker orient="auto" markerHeight="36" markerWidth="45" refY="18" refX="18" id="ONE_OR_MORE_START"><path d="M0,18 Q 18,0 36,18 Q 18,36 0,18 M42,9 L42,27" fill="none" stroke="gray"></path></marker></defs><defs><marker orient="auto" markerHeight="36" markerWidth="45" refY="18" refX="27" id="ONE_OR_MORE_END"><path d="M3,9 L3,27 M9,18 Q27,0 45,18 Q27,36 9,18" fill="none" stroke="gray"></path></marker></defs><defs><marker orient="auto" markerHeight="36" markerWidth="57" refY="18" refX="18" id="ZERO_OR_MORE_START"><circle r="6" cy="18" cx="48" fill="white" stroke="gray"></circle><path d="M0,18 Q18,0 36,18 Q18,36 0,18" fill="none" stroke="gray"></path></marker></defs><defs><marker orient="auto" markerHeight="36" markerWidth="57" refY="18" refX="39" id="ZERO_OR_MORE_END"><circle r="6" cy="18" cx="9" fill="white" stroke="gray"></circle><path d="M21,18 Q39,0 57,18 Q39,36 21,18" fill="none" stroke="gray"></path></marker></defs><path style="stroke: gray; fill: none;" marker-start="url(#ONLY_ONE_START)" marker-end="url(#ZERO_OR_MORE_END)" d="M77.013,119.016L77.013,127.349C77.013,135.682,77.013,152.349,104.647,176.212C132.281,200.075,187.549,231.134,215.182,246.664L242.816,262.193" class="er relationshipLine"></path><path style="stroke: gray; fill: none;" marker-start="url(#ONLY_ONE_START)" marker-end="url(#ZERO_OR_MORE_END)" d="M296.786,119.016L296.786,127.349C296.786,135.682,296.786,152.349,296.786,169.016C296.786,185.682,296.786,202.349,296.786,210.682L296.786,219.016" class="er relationshipLine"></path><path style="stroke: gray; fill: none;" marker-start="url(#ONLY_ONE_START)" marker-end="url(#ZERO_OR_MORE_END)" d="M516.558,119.016L516.558,127.349C516.558,135.682,516.558,152.349,488.924,176.212C461.291,200.075,406.023,231.134,378.389,246.664L350.755,262.193" class="er relationshipLine"></path><g transform="translate(20,20 )" id="entity-ColumnEntity-77185c37-f1b3-5027-a63d-9c1775ca2cb9"><rect height="99.015625" width="114.0269775390625" y="0" x="0" class="er entityBox"></rect><text style="dominant-baseline: middle; text-anchor: middle; font-size: 12px;" transform="translate(57.01348876953125,13.5078125)" y="0" x="0" id="text-entity-ColumnEntity-77185c37-f1b3-5027-a63d-9c1775ca2cb9" class="er entityLabel">ColumnEntity</text><rect height="24" width="61.14703369140625" y="27.015625" x="0" class="er attributeBoxOdd"></rect><text style="dominant-baseline: middle; font-size: 10.2px;" transform="translate(5,39.015625)" y="0" x="0" id="text-entity-ColumnEntity-77185c37-f1b3-5027-a63d-9c1775ca2cb9-attr-1-type" class="er entityLabel">id</text><rect height="24" width="52.87994384765625" y="27.015625" x="61.14703369140625" class="er attributeBoxOdd"></rect><text style="dominant-baseline: middle; font-size: 10.2px;" transform="translate(66.14703369140625,39.015625)" y="0" x="0" id="text-entity-ColumnEntity-77185c37-f1b3-5027-a63d-9c1775ca2cb9-attr-1-name" class="er entityLabel">bigint</text><rect height="24" width="61.14703369140625" y="51.015625" x="0" class="er attributeBoxEven"></rect><text style="dominant-baseline: middle; font-size: 10.2px;" transform="translate(5,63.015625)" y="0" x="0" id="text-entity-ColumnEntity-77185c37-f1b3-5027-a63d-9c1775ca2cb9-attr-2-type" class="er entityLabel">name</text><rect height="24" width="52.87994384765625" y="51.015625" x="61.14703369140625" class="er attributeBoxEven"></rect><text style="dominant-baseline: middle; font-size: 10.2px;" transform="translate(66.14703369140625,63.015625)" y="0" x="0" id="text-entity-ColumnEntity-77185c37-f1b3-5027-a63d-9c1775ca2cb9-attr-2-name" class="er entityLabel">varchar</text><rect height="24" width="61.14703369140625" y="75.015625" x="0" class="er attributeBoxOdd"></rect><text style="dominant-baseline: middle; font-size: 10.2px;" transform="translate(5,87.015625)" y="0" x="0" id="text-entity-ColumnEntity-77185c37-f1b3-5027-a63d-9c1775ca2cb9-attr-3-type" class="er entityLabel">includedAt</text><rect height="24" width="52.87994384765625" y="75.015625" x="61.14703369140625" class="er attributeBoxOdd"></rect><text style="dominant-baseline: middle; font-size: 10.2px;" transform="translate(66.14703369140625,87.015625)" y="0" x="0" id="text-entity-ColumnEntity-77185c37-f1b3-5027-a63d-9c1775ca2cb9-attr-3-name" class="er entityLabel">datetime</text></g><g transform="translate(242.8160400390625,219.015625 )" id="entity-RegisterEntity-0b12cd8e-fa19-5187-af02-8c6d75081754"><rect height="147.015625" width="107.939453125" y="0" x="0" class="er entityBox"></rect><text style="dominant-baseline: middle; text-anchor: middle; font-size: 12px;" transform="translate(53.9697265625,13.5078125)" y="0" x="0" id="text-entity-RegisterEntity-0b12cd8e-fa19-5187-af02-8c6d75081754" class="er entityLabel">RegisterEntity</text><rect height="24" width="58.8272705078125" y="27.015625" x="0" class="er attributeBoxOdd"></rect><text style="dominant-baseline: middle; font-size: 10.2px;" transform="translate(5,39.015625)" y="0" x="0" id="text-entity-RegisterEntity-0b12cd8e-fa19-5187-af02-8c6d75081754-attr-1-type" class="er entityLabel">id</text><rect height="24" width="49.1121826171875" y="27.015625" x="58.8272705078125" class="er attributeBoxOdd"></rect><text style="dominant-baseline: middle; font-size: 10.2px;" transform="translate(63.8272705078125,39.015625)" y="0" x="0" id="text-entity-RegisterEntity-0b12cd8e-fa19-5187-af02-8c6d75081754-attr-1-name" class="er entityLabel">bigint</text><rect height="24" width="58.8272705078125" y="51.015625" x="0" class="er attributeBoxEven"></rect><text style="dominant-baseline: middle; font-size: 10.2px;" transform="translate(5,63.015625)" y="0" x="0" id="text-entity-RegisterEntity-0b12cd8e-fa19-5187-af02-8c6d75081754-attr-2-type" class="er entityLabel">identifier</text><rect height="24" width="49.1121826171875" y="51.015625" x="58.8272705078125" class="er attributeBoxEven"></rect><text style="dominant-baseline: middle; font-size: 10.2px;" transform="translate(63.8272705078125,63.015625)" y="0" x="0" id="text-entity-RegisterEntity-0b12cd8e-fa19-5187-af02-8c6d75081754-attr-2-name" class="er entityLabel">varchar</text><rect height="24" width="58.8272705078125" y="75.015625" x="0" class="er attributeBoxOdd"></rect><text style="dominant-baseline: middle; font-size: 10.2px;" transform="translate(5,87.015625)" y="0" x="0" id="text-entity-RegisterEntity-0b12cd8e-fa19-5187-af02-8c6d75081754-attr-3-type" class="er entityLabel">lastValue</text><rect height="24" width="49.1121826171875" y="75.015625" x="58.8272705078125" class="er attributeBoxOdd"></rect><text style="dominant-baseline: middle; font-size: 10.2px;" transform="translate(63.8272705078125,87.015625)" y="0" x="0" id="text-entity-RegisterEntity-0b12cd8e-fa19-5187-af02-8c6d75081754-attr-3-name" class="er entityLabel">varchar</text><rect height="24" width="58.8272705078125" y="99.015625" x="0" class="er attributeBoxEven"></rect><text style="dominant-baseline: middle; font-size: 10.2px;" transform="translate(5,111.015625)" y="0" x="0" id="text-entity-RegisterEntity-0b12cd8e-fa19-5187-af02-8c6d75081754-attr-4-type" class="er entityLabel">newValue</text><rect height="24" width="49.1121826171875" y="99.015625" x="58.8272705078125" class="er attributeBoxEven"></rect><text style="dominant-baseline: middle; font-size: 10.2px;" transform="translate(63.8272705078125,111.015625)" y="0" x="0" id="text-entity-RegisterEntity-0b12cd8e-fa19-5187-af02-8c6d75081754-attr-4-name" class="er entityLabel">varchar</text><rect height="24" width="58.8272705078125" y="123.015625" x="0" class="er attributeBoxOdd"></rect><text style="dominant-baseline: middle; font-size: 10.2px;" transform="translate(5,135.015625)" y="0" x="0" id="text-entity-RegisterEntity-0b12cd8e-fa19-5187-af02-8c6d75081754-attr-5-type" class="er entityLabel">type</text><rect height="24" width="49.1121826171875" y="123.015625" x="58.8272705078125" class="er attributeBoxOdd"></rect><text style="dominant-baseline: middle; font-size: 10.2px;" transform="translate(63.8272705078125,135.015625)" y="0" x="0" id="text-entity-RegisterEntity-0b12cd8e-fa19-5187-af02-8c6d75081754-attr-5-name" class="er entityLabel">enum</text></g><g transform="translate(234.0269775390625,20 )" id="entity-CorrelationEntity-00265bfa-8e16-50e5-8b3d-1afe2c3d5e37"><rect height="99.015625" width="125.517578125" y="0" x="0" class="er entityBox"></rect><text style="dominant-baseline: middle; text-anchor: middle; font-size: 12px;" transform="translate(62.7587890625,13.5078125)" y="0" x="0" id="text-entity-CorrelationEntity-00265bfa-8e16-50e5-8b3d-1afe2c3d5e37" class="er entityLabel">CorrelationEntity</text><rect height="24" width="63.16661071777344" y="27.015625" x="0" class="er attributeBoxOdd"></rect><text style="dominant-baseline: middle; font-size: 10.2px;" transform="translate(5,39.015625)" y="0" x="0" id="text-entity-CorrelationEntity-00265bfa-8e16-50e5-8b3d-1afe2c3d5e37-attr-1-type" class="er entityLabel">id</text><rect height="24" width="62.35096740722656" y="27.015625" x="63.16661071777344" class="er attributeBoxOdd"></rect><text style="dominant-baseline: middle; font-size: 10.2px;" transform="translate(68.16661071777344,39.015625)" y="0" x="0" id="text-entity-CorrelationEntity-00265bfa-8e16-50e5-8b3d-1afe2c3d5e37-attr-1-name" class="er entityLabel">bigint</text><rect height="24" width="63.16661071777344" y="51.015625" x="0" class="er attributeBoxEven"></rect><text style="dominant-baseline: middle; font-size: 10.2px;" transform="translate(5,63.015625)" y="0" x="0" id="text-entity-CorrelationEntity-00265bfa-8e16-50e5-8b3d-1afe2c3d5e37-attr-2-type" class="er entityLabel">identifier</text><rect height="24" width="62.35096740722656" y="51.015625" x="63.16661071777344" class="er attributeBoxEven"></rect><text style="dominant-baseline: middle; font-size: 10.2px;" transform="translate(68.16661071777344,63.015625)" y="0" x="0" id="text-entity-CorrelationEntity-00265bfa-8e16-50e5-8b3d-1afe2c3d5e37-attr-2-name" class="er entityLabel">varchar</text><rect height="24" width="63.16661071777344" y="75.015625" x="0" class="er attributeBoxOdd"></rect><text style="dominant-baseline: middle; font-size: 10.2px;" transform="translate(5,87.015625)" y="0" x="0" id="text-entity-CorrelationEntity-00265bfa-8e16-50e5-8b3d-1afe2c3d5e37-attr-3-type" class="er entityLabel">date</text><rect height="24" width="62.35096740722656" y="75.015625" x="63.16661071777344" class="er attributeBoxOdd"></rect><text style="dominant-baseline: middle; font-size: 10.2px;" transform="translate(68.16661071777344,87.015625)" y="0" x="0" id="text-entity-CorrelationEntity-00265bfa-8e16-50e5-8b3d-1afe2c3d5e37-attr-3-name" class="er entityLabel">datetime</text></g><g transform="translate(459.5445556640625,20 )" id="entity-TableEntity-da6d8cee-c656-5c61-92f2-150bd2f7fca9"><rect height="99.015625" width="114.0269775390625" y="0" x="0" class="er entityBox"></rect><text style="dominant-baseline: middle; text-anchor: middle; font-size: 12px;" transform="translate(57.01348876953125,13.5078125)" y="0" x="0" id="text-entity-TableEntity-da6d8cee-c656-5c61-92f2-150bd2f7fca9" class="er entityLabel">TableEntity</text><rect height="24" width="61.14703369140625" y="27.015625" x="0" class="er attributeBoxOdd"></rect><text style="dominant-baseline: middle; font-size: 10.2px;" transform="translate(5,39.015625)" y="0" x="0" id="text-entity-TableEntity-da6d8cee-c656-5c61-92f2-150bd2f7fca9-attr-1-type" class="er entityLabel">id</text><rect height="24" width="52.87994384765625" y="27.015625" x="61.14703369140625" class="er attributeBoxOdd"></rect><text style="dominant-baseline: middle; font-size: 10.2px;" transform="translate(66.14703369140625,39.015625)" y="0" x="0" id="text-entity-TableEntity-da6d8cee-c656-5c61-92f2-150bd2f7fca9-attr-1-name" class="er entityLabel">bigint</text><rect height="24" width="61.14703369140625" y="51.015625" x="0" class="er attributeBoxEven"></rect><text style="dominant-baseline: middle; font-size: 10.2px;" transform="translate(5,63.015625)" y="0" x="0" id="text-entity-TableEntity-da6d8cee-c656-5c61-92f2-150bd2f7fca9-attr-2-type" class="er entityLabel">name</text><rect height="24" width="52.87994384765625" y="51.015625" x="61.14703369140625" class="er attributeBoxEven"></rect><text style="dominant-baseline: middle; font-size: 10.2px;" transform="translate(66.14703369140625,63.015625)" y="0" x="0" id="text-entity-TableEntity-da6d8cee-c656-5c61-92f2-150bd2f7fca9-attr-2-name" class="er entityLabel">varchar</text><rect height="24" width="61.14703369140625" y="75.015625" x="0" class="er attributeBoxOdd"></rect><text style="dominant-baseline: middle; font-size: 10.2px;" transform="translate(5,87.015625)" y="0" x="0" id="text-entity-TableEntity-da6d8cee-c656-5c61-92f2-150bd2f7fca9-attr-3-type" class="er entityLabel">includedAt</text><rect height="24" width="52.87994384765625" y="75.015625" x="61.14703369140625" class="er attributeBoxOdd"></rect><text style="dominant-baseline: middle; font-size: 10.2px;" transform="translate(66.14703369140625,87.015625)" y="0" x="0" id="text-entity-TableEntity-da6d8cee-c656-5c61-92f2-150bd2f7fca9-attr-3-name" class="er entityLabel">datetime</text></g><rect height="17.015625" width="41.828125" y="195.91128540039062" x="122.82447814941406" class="er relationshipLabelBox"></rect><text style="text-anchor: middle; dominant-baseline: middle; font-size: 12px;" y="204.41909790039062" x="143.73854064941406" id="rel4" class="er relationshipLabel">column</text><rect height="17.015625" width="61.109375" y="160.50819396972656" x="266.2313232421875" class="er relationshipLabelBox"></rect><text style="text-anchor: middle; dominant-baseline: middle; font-size: 12px;" y="169.01600646972656" x="296.7860107421875" id="rel5" class="er relationshipLabel">correlation</text><rect height="17.015625" width="28.31640625" y="195.9109649658203" x="435.6741027832031" class="er relationshipLabelBox"></rect><text style="text-anchor: middle; dominant-baseline: middle; font-size: 12px;" y="204.4187774658203" x="449.8323059082031" id="rel6" class="er relationshipLabel">table</text></svg>