<?xml version="1.0" encoding="us-ascii" standalone="no"?><svg xmlns="http://www.w3.org/2000/svg" xmlns:xlink="http://www.w3.org/1999/xlink" contentStyleType="text/css" height="386.4583px" preserveAspectRatio="none" style="width:376px;height:386px;" version="1.1" viewBox="0 0 376 386" width="376.0417px" zoomAndPan="magnify"><defs><linearGradient id="gpgdjsjnipyph0" x1="50%" x2="50%" y1="0%" y2="100%"><stop offset="0%" stop-color="#59B6EC"/><stop offset="100%" stop-color="#2FA4E7"/></linearGradient><linearGradient id="gpgdjsjnipyph1" x1="50%" x2="50%" y1="0%" y2="100%"><stop offset="0%" stop-color="#2FA4E7"/><stop offset="100%" stop-color="#2683B9"/></linearGradient></defs><g><!--class tb_log_column--><g id="elem_tb_log_column"><rect codeLine="2" fill="url(#gpgdjsjnipyph0)" height="122.1029" id="tb_log_column" rx="4.1667" ry="4.1667" style="stroke:#2FA4E7;stroke-width:1.0416666666666667;" width="154.1667" x="17.7083" y="252.1042"/><rect fill="url(#gpgdjsjnipyph1)" height="34.1715" rx="4.1667" ry="4.1667" style="stroke:url(#gpgdjsjnipyph1);stroke-width:1.0416666666666667;" width="154.1667" x="17.7083" y="252.1042"/><rect fill="url(#gpgdjsjnipyph1)" height="4.1667" style="stroke:url(#gpgdjsjnipyph1);stroke-width:1.0416666666666667;" width="154.1667" x="17.7083" y="282.109"/><rect codeLine="2" fill="none" height="122.1029" id="tb_log_column" rx="4.1667" ry="4.1667" style="stroke:#2FA4E7;stroke-width:1.0416666666666667;" width="154.1667" x="17.7083" y="252.1042"/><ellipse cx="44.9479" cy="269.1899" fill="none" rx="10.4167" ry="10.4167" style="stroke:#2683B9;stroke-width:1.0416666666666667;"/><path d="M47.487,273.8774 L41.8066,273.8774 L41.8066,264.7629 L47.487,264.7629 L47.487,266.3579 L43.6133,266.3579 L43.6133,268.311 L47.1126,268.311 L47.1126,269.9061 L43.6133,269.9061 L43.6133,272.2824 L47.487,272.2824 L47.487,273.8774 Z " fill="#FFFFFF"/><text fill="#F8F9FA" font-family="Verdana" font-size="11.4583" lengthAdjust="spacing" textLength="84.375" x="66.5104" y="273.1567">tb_log_column</text><line style="stroke:#2FA4E7;stroke-width:1.0416666666666667;" x1="18.75" x2="170.8333" y1="286.2757" y2="286.2757"/><text fill="#F8F9FA" font-family="Verdana" font-size="11.4583" lengthAdjust="spacing" textLength="37.5" x="29.1667" y="306.2866">id : int</text><text fill="#F8F9FA" font-family="Verdana" font-size="11.4583" lengthAdjust="spacing" textLength="131.25" x="29.1667" y="330.0415">included_at : datetime</text><line style="stroke:#2FA4E7;stroke-width:1.0416666666666667;" x1="18.75" x2="170.8333" y1="342.1188" y2="342.1188"/><text fill="#F8F9FA" font-family="Verdana" font-size="11.4583" lengthAdjust="spacing" textLength="113.5417" x="29.1667" y="362.1297">name : varchar(30)</text></g><!--class tb_log_correlation--><g id="elem_tb_log_correlation"><rect codeLine="7" fill="url(#gpgdjsjnipyph0)" height="122.1029" id="tb_log_correlation" rx="4.1667" ry="4.1667" style="stroke:#2FA4E7;stroke-width:1.0416666666666667;" width="155.2083" x="208.8542" y="252.1042"/><rect fill="url(#gpgdjsjnipyph1)" height="34.1715" rx="4.1667" ry="4.1667" style="stroke:url(#gpgdjsjnipyph1);stroke-width:1.0416666666666667;" width="155.2083" x="208.8542" y="252.1042"/><rect fill="url(#gpgdjsjnipyph1)" height="4.1667" style="stroke:url(#gpgdjsjnipyph1);stroke-width:1.0416666666666667;" width="155.2083" x="208.8542" y="282.109"/><rect codeLine="7" fill="none" height="122.1029" id="tb_log_correlation" rx="4.1667" ry="4.1667" style="stroke:#2FA4E7;stroke-width:1.0416666666666667;" width="155.2083" x="208.8542" y="252.1042"/><ellipse cx="227.1875" cy="269.1899" fill="none" rx="10.4167" ry="10.4167" style="stroke:#2683B9;stroke-width:1.0416666666666667;"/><path d="M229.7266,273.8774 L224.0462,273.8774 L224.0462,264.7629 L229.7266,264.7629 L229.7266,266.3579 L225.8529,266.3579 L225.8529,268.311 L229.3522,268.311 L229.3522,269.9061 L225.8529,269.9061 L225.8529,272.2824 L229.7266,272.2824 L229.7266,273.8774 Z " fill="#FFFFFF"/><text fill="#F8F9FA" font-family="Verdana" font-size="11.4583" lengthAdjust="spacing" textLength="105.2083" x="246.7708" y="273.1567">tb_log_correlation</text><line style="stroke:#2FA4E7;stroke-width:1.0416666666666667;" x1="209.8958" x2="363.0208" y1="286.2757" y2="286.2757"/><text fill="#F8F9FA" font-family="Verdana" font-size="11.4583" lengthAdjust="spacing" textLength="55.2083" x="220.3125" y="306.2866">id : bigint</text><text fill="#F8F9FA" font-family="Verdana" font-size="11.4583" lengthAdjust="spacing" textLength="90.625" x="220.3125" y="330.0415">date : datetime</text><line style="stroke:#2FA4E7;stroke-width:1.0416666666666667;" x1="209.8958" x2="363.0208" y1="342.1188" y2="342.1188"/><text fill="#F8F9FA" font-family="Verdana" font-size="11.4583" lengthAdjust="spacing" textLength="132.2917" x="220.3125" y="362.1297">identifier : varchar(30)</text></g><!--class tb_log_register--><g id="elem_tb_log_register"><rect codeLine="12" fill="url(#gpgdjsjnipyph0)" height="145.8577" id="tb_log_register" rx="4.1667" ry="4.1667" style="stroke:#2FA4E7;stroke-width:1.0416666666666667;" width="191.6667" x="94.7917" y="17.7083"/><rect fill="url(#gpgdjsjnipyph1)" height="34.1715" rx="4.1667" ry="4.1667" style="stroke:url(#gpgdjsjnipyph1);stroke-width:1.0416666666666667;" width="191.6667" x="94.7917" y="17.7083"/><rect fill="url(#gpgdjsjnipyph1)" height="4.1667" style="stroke:url(#gpgdjsjnipyph1);stroke-width:1.0416666666666667;" width="191.6667" x="94.7917" y="47.7132"/><rect codeLine="12" fill="none" height="145.8577" id="tb_log_register" rx="4.1667" ry="4.1667" style="stroke:#2FA4E7;stroke-width:1.0416666666666667;" width="191.6667" x="94.7917" y="17.7083"/><ellipse cx="137.0313" cy="34.7941" fill="none" rx="10.4167" ry="10.4167" style="stroke:#2683B9;stroke-width:1.0416666666666667;"/><path d="M139.5703,39.4816 L133.89,39.4816 L133.89,30.367 L139.5703,30.367 L139.5703,31.9621 L135.6966,31.9621 L135.6966,33.9152 L139.196,33.9152 L139.196,35.5103 L135.6966,35.5103 L135.6966,37.8866 L139.5703,37.8866 L139.5703,39.4816 Z " fill="#FFFFFF"/><text fill="#F8F9FA" font-family="Verdana" font-size="11.4583" lengthAdjust="spacing" textLength="88.5417" x="161.9271" y="38.7609">tb_log_register</text><line style="stroke:#2FA4E7;stroke-width:1.0416666666666667;" x1="95.8333" x2="285.4167" y1="51.8799" y2="51.8799"/><text fill="#F8F9FA" font-family="Verdana" font-size="11.4583" lengthAdjust="spacing" textLength="55.2083" x="106.25" y="71.8908">id : bigint</text><line style="stroke:#2FA4E7;stroke-width:1.0416666666666667;" x1="95.8333" x2="285.4167" y1="83.9681" y2="83.9681"/><text fill="#F8F9FA" font-family="Verdana" font-size="11.4583" lengthAdjust="spacing" textLength="168.75" x="106.25" y="103.979">previus_value : varchar(255)</text><text fill="#F8F9FA" font-family="Verdana" font-size="11.4583" lengthAdjust="spacing" textLength="148.9583" x="106.25" y="127.7339">new_value : varchar(255)</text><text fill="#F8F9FA" font-family="Verdana" font-size="11.4583" lengthAdjust="spacing" textLength="79.1667" x="106.25" y="151.4887">type : char(4)</text></g><!--link tb_log_register to tb_log_correlation--><g id="link_tb_log_register_tb_log_correlation"><path codeLine="18" d="M222,163.8542 C231.4896,185.6771 241.9688,209.7708 251.6563,232.0729 " fill="none" id="tb_log_register-to-tb_log_correlation" style="stroke:#2FA4E7;stroke-width:3.125;"/><polygon fill="none" points="258.6771,228.8854,260.3021,250.8958,245.3021,234.6979,258.6771,228.8854" style="stroke:#2FA4E7;stroke-width:3.125;"/><text fill="#343A40" font-family="Verdana" font-size="12.5" lengthAdjust="spacing" textLength="88.5417" x="250" y="212.6653">correlation_id</text></g><!--link tb_log_register to tb_log_column--><g id="link_tb_log_register_tb_log_column"><path codeLine="19" d="M159.25,163.8542 C149.7604,185.6771 139.2813,209.7708 129.5938,232.0729 " fill="none" id="tb_log_register-to-tb_log_column" style="stroke:#2FA4E7;stroke-width:3.125;"/><polygon fill="none" points="135.9479,234.6979,120.9479,250.8958,122.5729,228.8854,135.9479,234.6979" style="stroke:#2FA4E7;stroke-width:3.125;"/><text fill="#343A40" font-family="Verdana" font-size="12.5" lengthAdjust="spacing" textLength="64.5833" x="152.0833" y="212.6653">column_id</text></g><!--SRC=[VP313e8m38RlUufwamE9KRbmy5MMiLLeCWOP7OQex-w61uaejwv_lw_RTjnWYw3H1ulA2NHCF05NqdQrr9qDhOEx02039P3ZM3eLYH96vNMZ_Fvqo5Bkj0q6ZLGSCwCOcLeKpvNHUxIAgLjeAwhVPZ9f-aheL_vat19xh6dW2AwjlSUHmY17PSFouiUYI6Q7jtyHJttgpgrp5dT-Bylpn-NNqoBpEKao0hR9-PiJb8eu_m80]--></g></svg>